<?xml version="1.0" encoding="UTF-8" standalone="no"?>
<svg width="60px" height="60px" viewBox="0 0 60 60" version="1.1" xmlns="http://www.w3.org/2000/svg" xmlns:xlink="http://www.w3.org/1999/xlink" xmlns:sketch="http://www.bohemiancoding.com/sketch/ns">
    <!-- Generator: Sketch 3.4 (15575) - http://www.bohemiancoding.com/sketch -->
    <title>safari-icon</title>
    <desc>Created with Sketch.</desc>
    <defs></defs>
    <g id="Page-1" stroke="none" stroke-width="1" fill="none" fill-rule="evenodd" sketch:type="MSPage">
        <g id="safari-icon" sketch:type="MSArtboardGroup" fill="#000000">
            <g id="MyScript-Logo-Copy" sketch:type="MSLayerGroup">
                <path d="M51.2433787,0 C56.0795271,0 60,3.91362281 60,8.75662134 L60,60 L8.75662134,60 C3.92047291,60 0,56.0863772 0,51.2433787 L0,0 L51.2433787,0 Z M52.5,45 L60,45 L60,52.5 L52.5,52.5 L52.5,45 Z M41.8685133,22.4928288 C42.2435133,20.9928288 42.9935133,19.3678288 43.2435133,18.2428288 C43.2435133,19.6178288 43.3685133,21.3678288 43.4935133,22.8678288 L44.9935133,44.9928288 L52.4935133,44.9928288 L49.2435133,9.1178288 L38.9935133,9.1178288 L33.3685133,29.3678288 C32.9935133,31.1178288 32.6185133,32.7428288 32.3685133,33.8678288 C31.9935133,32.3678288 31.7435133,30.7428288 31.4935133,29.2428288 C30.8685133,24.8678288 29.4935133,16.9928288 27.8685133,11.2428288 C27.2435133,8.3678288 23.6185133,7.6178288 21.4935133,8.6178288 C19.8685133,9.2428288 18.9935133,11.2428288 18.4935133,12.8678288 C17.7435133,15.3678288 17.1185133,17.8678288 16.4935133,20.4928288 C15.9935133,22.8678288 15.3685133,26.1178288 14.8685133,28.4928288 C14.7435133,29.1178288 14.4935133,30.2428288 13.8685133,30.2428288 C13.3685133,30.2428288 13.3685133,27.6178288 13.3685133,26.8678288 C13.3685133,24.1178288 13.2435133,20.2428288 12.7435133,17.4928288 C12.1185133,14.3678288 11.2435133,10.7428288 7.2435133,11.2428288 C6.1185133,11.3678288 4.2435133,12.1178288 4.4935133,13.2428288 C4.8685133,14.8678288 5.3685133,16.8678288 5.6185133,18.6178288 C6.7435133,25.2428288 7.6185133,36.4928288 8.1185133,42.2428288 C8.2435133,44.7428288 10.9935133,45.9928288 13.6185133,44.8678288 C14.8685133,44.3678288 15.7435133,42.7428288 16.1185133,41.6178288 C18.7435133,34.7428288 20.3685133,27.3678288 22.4935133,20.3678288 C22.4935133,20.2428288 22.7435133,19.3678288 22.9935133,19.3678288 C24.1185133,19.3678288 25.6185133,35.8678288 25.9935133,37.4928288 C26.3685133,39.8678288 27.1185133,44.1178288 29.8685133,44.7428288 C30.3685133,44.8678288 31.1185133,44.8678288 31.7435133,44.8678288 C31.9935133,44.9928288 35.3685133,44.9928288 35.3685133,44.9928288 L41.8685133,22.4928288 Z" id="Rectangle-45" sketch:type="MSShapeGroup"></path>
            </g>
        </g>
    </g>
</svg>